<?xml version="1.0" encoding="UTF-8" standalone="no"?>
<svg
   id="head"
   viewBox="0 0 360 360"
   version="1.1"
   sodipodi:docname="replbot-nft-1.svg"
   inkscape:version="1.1.2 (0a00cf5339, 2022-02-04, custom)"
   xmlns:inkscape="http://www.inkscape.org/namespaces/inkscape"
   xmlns:sodipodi="http://sodipodi.sourceforge.net/DTD/sodipodi-0.dtd"
   xmlns="http://www.w3.org/2000/svg"
   xmlns:svg="http://www.w3.org/2000/svg">
  <sodipodi:namedview
     id="namedview229"
     pagecolor="#ffff00"
     bordercolor="#666666"
     borderopacity="1.0"
     inkscape:pageshadow="0"
     inkscape:pageopacity="1.0"
     inkscape:pagecheckerboard="0"
     showgrid="false"
     inkscape:zoom="2.0194444"
     inkscape:cx="68.335626"
     inkscape:cy="180"
     inkscape:window-width="1918"
     inkscape:window-height="1030"
     inkscape:window-x="1920"
     inkscape:window-y="49"
     inkscape:window-maximized="1"
     inkscape:current-layer="head" />
  <defs
     id="defs4">
    <style
       id="style2">.cls-1{fill:#008900;}.cls-2{fill:#ffffff;}.cls-3{fill:none;stroke:#000;stroke-linecap:round;stroke-linejoin:round;stroke-width:0.62px;}</style>
    <linearGradient
       id="linear-gradient-2"
       x1="216.02"
       y1="135.84"
       x2="254.39999"
       y2="103.64"
       gradientUnits="userSpaceOnUse"
       gradientTransform="translate(0.789998,-0.200004)">
      <stop
         offset="0"
         stop-color="#fff"
         stop-opacity="0.6"
         id="stop64" />
      <stop
         offset="0.09"
         stop-color="#ccc"
         stop-opacity="0.48"
         id="stop66" />
      <stop
         offset="0.22"
         stop-color="#8d8d8d"
         stop-opacity="0.33"
         id="stop68" />
      <stop
         offset="0.35"
         stop-color="#5a5a5a"
         stop-opacity="0.21"
         id="stop70" />
      <stop
         offset="0.49"
         stop-color="#323232"
         stop-opacity="0.12"
         id="stop72" />
      <stop
         offset="0.64"
         stop-color="#161616"
         stop-opacity="0.05"
         id="stop74" />
      <stop
         offset="0.8"
         stop-color="#050505"
         stop-opacity="0.01"
         id="stop76" />
      <stop
         offset="1"
         stop-opacity="0"
         id="stop78" />
    </linearGradient>
    <linearGradient
       id="linear-gradient"
       x1="102.51"
       y1="126.94"
       x2="163.67999"
       y2="126.94"
       gradientUnits="userSpaceOnUse"
       gradientTransform="translate(0.789998,-0.200004)">
      <stop
         offset="0"
         stop-color="#fff"
         id="stop41" />
      <stop
         offset="0.04"
         stop-color="#dbdbdb"
         stop-opacity="0.86"
         id="stop43" />
      <stop
         offset="0.1"
         stop-color="#adadad"
         stop-opacity="0.68"
         id="stop45" />
      <stop
         offset="0.16"
         stop-color="#848484"
         stop-opacity="0.52"
         id="stop47" />
      <stop
         offset="0.23"
         stop-color="#606060"
         stop-opacity="0.38"
         id="stop49" />
      <stop
         offset="0.31"
         stop-color="#424242"
         stop-opacity="0.26"
         id="stop51" />
      <stop
         offset="0.39"
         stop-color="#2a2a2a"
         stop-opacity="0.16"
         id="stop53" />
      <stop
         offset="0.48"
         stop-color="#171717"
         stop-opacity="0.09"
         id="stop55" />
      <stop
         offset="0.59"
         stop-color="#0a0a0a"
         stop-opacity="0.04"
         id="stop57" />
      <stop
         offset="0.72"
         stop-color="#020202"
         stop-opacity="0.01"
         id="stop59" />
      <stop
         offset="1"
         stop-opacity="0"
         id="stop61" />
    </linearGradient>
  </defs>
  <rect width="100%" height="100%" fill="#ff00ff"/>
  <path
     class="cls-1"
     d="M122.24,128.19h0c-.92,8.4-2.85,14.6-4.74,14.6l-8.21,0c2.23,0,4.53-8.74,5.14-19.5s-.71-19.49-2.94-19.49h8.22c1.2,0,2.14,2.51,2.65,6.51h0l-.29.71s-1.38,14.59-.88,15.62a9.33,9.33,0,0,0,.6.94Z"
     id="path6" />
  <path
     class="cls-1"
     d="M121.21,126.66c-.5-1,.88-15.62.88-15.62l.29-.71,1.52-3.9.08-.2,2.15.85a14.47,14.47,0,0,0-.72,4c-.16,3,.37,5.34,1.19,5.34h2.84c.82,0,1.62-2.39,1.78-5.34l0-.64v0h1.85l-.24,10.41,0,.08c-4.33,2.6-10.13,6.18-11.1,6.78A9.33,9.33,0,0,1,121.21,126.66Z"
     id="path8" />
  <path
     d="M217.07,216.09l-5,1.73,0-.06a3.66,3.66,0,0,0,.07-2.73l.14-.05Z"
     id="path10" />
  <polygon
     class="cls-1"
     points="200.81 254.68 200.81 238.32 305.7 248.69 310.67 254.68 200.81 254.68"
     id="polygon12" />
  <polygon
     class="cls-1"
     points="192.67 228.84 192.64 234.58 167.36 234.58 167.33 228.84 192.67 228.84"
     id="polygon14" />
  <polygon
     class="cls-1"
     points="159.19 254.68 49.33 254.68 54.3 248.69 159.19 238.32 159.19 254.68"
     id="polygon16" />
  <path
     class="cls-1"
     d="M127.2,105.69c-.38,0-.76.53-1.07,1.39l-2.15-.85,5.63-14.32,1-2.61a11.86,11.86,0,0,1,2.86-4l.18.17-.58,24.91h-1.85c.05-2.63-.46-4.65-1.21-4.64Z"
     id="path18" />
  <polygon
     class="cls-1"
     points="233.64 215.82 233.64 225.62 220.68 222.83 219.87 220.37 233.64 215.82"
     id="polygon20" />
  <path
     class="cls-1"
     d="M211.29,187.46a3.75,3.75,0,0,1-2.64,1.09H151.18a3.73,3.73,0,1,1,0-7.46h57.47a3.56,3.56,0,0,1,1.63.38,3.73,3.73,0,0,1,1,6Z"
     id="path22" />
  <path
     class="cls-1"
     d="M208.65,197.05a3.73,3.73,0,1,1,0,7.46H151.18a3.73,3.73,0,1,1,0-7.46Z"
     id="path24" />
  <path
     class="cls-1"
     d="M56.68,270.85v47.6l8.09,2H293.14l8.09-2v-47.6ZM305,327.12H55l-14.28-9.66,4.92-57.37,4.82,3.72h259l4.82-3.72,4.92,57.37Z"
     id="path26" />
  <path
     class="cls-1"
     d="M111.49,103.83c2.23,0,3.55,8.72,2.94,19.49s-2.91,19.49-5.14,19.5c-1.77,0-3-5.44-3.09-13,0-2,0-4.18.15-6.45C107,112.57,109.26,103.84,111.49,103.83Z"
     id="path28" />
  <path
     class="cls-1"
     d="M219.87,220.37l-19.67,6.5-7.5-2.28,12.65-4.41,6.75-2.36,5-1.73L212.29,215l-.14.05a3.72,3.72,0,0,0-3.5-2.45v-.09a3.75,3.75,0,0,0,2.64-1.09,3.69,3.69,0,0,0,.63-.84l.23.14,21.49,5.12Z"
     id="path30" />
  <path
     class="cls-1"
     d="M141.23,158.88a88,88,0,0,0-8.7,3.69l-1.63-30.29,8.47,1.53Z"
     id="path32" />
  <path
     class="cls-1"
     d="M124.7,131.3s-1.41-1.7-2.46-3.1h0l-.43-.59c1-.6,6.77-4.18,11.1-6.78,2.19-1.34,4-2.4,4.63-2.71a172.3,172.3,0,0,1,44.16-6.29c23.56,0,46.44,6.1,46.44,6.1.56.29,2.16,1.3,4.14,2.55l0,0c3.83,2.47,9,5.9,10.32,6.76l-.59.7c-1.21,1.4-2.82,3.11-2.82,3.11s-8.43-7.33-13.88-8.27A160.62,160.62,0,0,0,181,116.53c-24.72,0-41.42,6.43-41.42,6.43C133.82,125.34,124.7,131.3,124.7,131.3Z"
     id="path34" />
  <path
     class="cls-1"
     d="M258.5,123c-.14,2.57-.4,5-.71,7.28-1,7.16-2.74,12.23-4.44,12.23-2.23,0-3.55-8.73-2.94-19.48s2.92-19.5,5.15-19.52S259.11,112.26,258.5,123Z"
     id="path36" />
  <path
     class="cls-1"
     d="M161.56,226.7l-21.39-6.61-13.81-4.27,21.49-5.12.11-.07a3.71,3.71,0,0,0,3.22,1.86h57.47v.09H151.18a3.75,3.75,0,0,0-2.64,1.09,3.68,3.68,0,0,0-.84,1.31l-4.77,1.11,11.54,4,12.83,4.47Z"
     id="path38" />
  <rect
     class="cls-1"
     x="64.77"
     y="276.03"
     width="228.37"
     height="44.45"
     id="rect40" />
  <path
     class="cls-1"
     d="M137.13,92.94l.13-2.36s.17-3.1,4.55-4,31.35-4.7,43.32-4.34l4.31,0a336.18,336.18,0,0,1,37.72,4.15c4.27.88,4.09,4,4.09,4l-.18,3.4h-.19s-1-2.06-4.42-3.35c-37.66-9.21-81.32-1.32-83.72-.74s-5.55,3.25-5.55,3.25Z"
     id="path42" />
  <path
     class="cls-1"
     d="M243.25,126.41c.61-1,.88-15.62.88-15.62l-.2-.67c1-4,2.2-6.56,3.4-6.56H251l4.55,0c-2.23,0-4.55,8.75-5.15,19.52s.71,19.48,2.94,19.48h-8.23a.76.76,0,0,1-.38-.09h0c-1.65-.8-2.71-6.71-2.69-14.5l.59-.7C242.91,126.89,243.13,126.61,243.25,126.41Z"
     id="path44" />
  <path
     class="cls-1"
     d="M126.6,116.37c.82,0,1.62-2.39,1.79-5.34s-.36-5.34-1.19-5.34H130c.75,0,1.26,2,1.21,4.64v0l0,.64c-.16,3-1,5.34-1.78,5.34Z"
     id="path46" />
  <polygon
     class="cls-1"
     points="309.5 263.81 201.25 263.81 186.79 263.81 189.42 254.83 192.51 254.79 200.81 254.68 310.67 254.68 314.32 260.09 309.5 263.81"
     id="polygon48" />
  <path
     class="cls-1"
     d="M148.54,174.2a3.75,3.75,0,0,1,2.64-1.09h57.47a3.73,3.73,0,1,1,0,7.46H151.18a3.73,3.73,0,0,1-2.64-6.37Z"
     id="path50" />
  <path
     class="cls-1"
     d="M244.13,110.79s-.27,14.59-.88,15.62c-.12.2-.34.48-.62.84-1.32-.86-6.49-4.29-10.32-6.76l.18-.29s4-32.74,4.24-33.26l.17-.1h0a10.07,10.07,0,0,1,1,2.23l.74,2.53,5.29,18.51Z"
     id="path52" />
  <path
     class="cls-1"
     d="M186.24,109.1a245,245,0,0,1,41.07,5.34,2,2,0,0,0,2.74-1.69l1-19,.18-3.4s.18-3.1-4.09-4a336.18,336.18,0,0,0-37.72-4.15l-4.31,0c-12-.36-38.95,3.43-43.32,4.34s-4.55,4-4.55,4l-.13,2.36-1.07,20s0,2.33,2.56,1.67,26.68-5.5,46.62-5.54Zm-48.7,9c-.61.31-2.44,1.37-4.63,2.71l0-.08.24-10.41.58-24.91-.18-.17a6.4,6.4,0,0,1,4.3-1.77s23.11-5.26,46.52-5.3,47.09,5.1,47.09,5.1a6.45,6.45,0,0,1,5.49,3.56l-.17.1c-.22.52-4.24,33.26-4.24,33.26l-.18.29,0,0c-2-1.25-3.58-2.26-4.14-2.55,0,0-22.88-6.14-46.44-6.1A172.3,172.3,0,0,0,137.54,118.11Z"
     id="path54" />
  <path
     class="cls-1"
     d="M130.9,132.28s13.18-10.84,51.24-11.27a1.24,1.24,0,0,1,.27,0c38.08.27,50.05,11.07,50.05,11.07l-8.63,1.57s-15.08-8.58-40.72-8.53-43.74,8.7-43.74,8.7Z"
     id="path56" />
  <polygon
     class="cls-1"
     points="64.77 276.03 56.68 270.85 301.23 270.85 293.14 276.03 64.77 276.03"
     id="polygon58" />
  <path
     class="cls-1"
     d="M208.65,212.58a3.72,3.72,0,0,1,3.5,2.45,3.66,3.66,0,0,1-.07,2.73l0,.06-6.75,2.36,0-.14H154.5l0,.08-11.54-4L147.7,215a3.68,3.68,0,0,1,.84-1.31,3.75,3.75,0,0,1,2.64-1.09Z"
     id="path60" />
  <polygon
     class="cls-1"
     points="192.6 240.32 192.56 246.07 167.44 246.07 167.4 240.32 192.6 240.32"
     id="polygon62" />
  <path
     class="cls-1"
     d="M208.65,205a3.73,3.73,0,0,1,3.73,3.73l-.46,1.8a3.69,3.69,0,0,1-.63.84,3.75,3.75,0,0,1-2.64,1.09H151.18a3.71,3.71,0,0,1-3.22-1.86,3.62,3.62,0,0,1-.51-1.87,3.72,3.72,0,0,1,3.73-3.73Z"
     id="path64" />
  <path
     class="cls-1"
     d="M128.39,111c-.17,3-1,5.33-1.79,5.34s-1.35-2.39-1.19-5.34a14.47,14.47,0,0,1,.72-4c.31-.86.69-1.38,1.07-1.39C128,105.69,128.55,108.08,128.39,111Z"
     id="path66" />
  <path
     class="cls-1"
     d="M219.5,159.69l4.33-26.05,8.63-1.57-4.65,31.68A74.5,74.5,0,0,0,219.5,159.69Z"
     id="path68" />
  <polygon
     class="cls-1"
     points="233.64 225.62 272.69 234.01 279.41 241.83 220.68 229.85 220.68 222.83 233.64 225.62"
     id="polygon70" />
  <polygon
     class="cls-1"
     points="159.19 238.32 139.32 229.85 139.32 222.83 140.17 220.09 161.56 226.7 167.3 224.59 167.33 228.84 167.36 234.58 167.4 240.32 167.44 246.07 167.49 254.58 167.49 254.79 159.19 254.68 159.19 238.32"
     id="polygon72" />
  <path
     class="cls-1"
     d="M208.65,188.55a3.73,3.73,0,0,0,1.63-7.08l.1-.21c4.32-1.54,6.86-3.42,6.86-5.46,0-1.81-2-3.49-5.48-4.93-6.57-2.71-18.4-4.52-31.9-4.52s-25.19,1.79-31.78,4.48c-3.55,1.44-5.6,3.14-5.6,5,0,2,2.51,4.19,6.74,5.72l.06.09a3.73,3.73,0,0,0,1.9,6.94ZM130.9,132.28l1.63,30.29a88,88,0,0,1,8.7-3.69A115.29,115.29,0,0,1,180,151.62h1.2a99,99,0,0,1,38.32,8.06,74.5,74.5,0,0,1,8.31,4.06l4.65-31.68s-12-10.8-50.05-11.07a1.24,1.24,0,0,0-.27,0C144.08,121.44,130.9,132.28,130.9,132.28Zm-8.66-4.08c1.05,1.4,2.46,3.1,2.46,3.1s9.12-6,14.83-8.34c0,0,16.7-6.38,41.42-6.43a160.62,160.62,0,0,1,44.39,6.26c5.45.94,13.88,8.27,13.88,8.27s1.61-1.71,2.82-3.11c0,7.79,1,13.7,2.69,14.5l-.06.1-8.25,30s-1.65,12.71-21.59,15.53c0,0-1.89.49-4.49,1l.09.52a3.7,3.7,0,0,0-1.78-.45H151.18a3.7,3.7,0,0,0-1.78.45l-.19-.49c-6.67-.43-22.58-3-26.28-17.67-4.71-18.69-5.43-28.56-5.43-28.56C119.39,142.8,121.32,136.6,122.24,128.2Z"
     id="path74" />
  <path
     class="cls-1"
     d="M212.38,192.8a3.72,3.72,0,0,1-3.73,3.73H151.18a3.73,3.73,0,0,1-2.64-6.37,3.85,3.85,0,0,1,.86-.64,3.7,3.7,0,0,1,1.78-.45h57.47a3.72,3.72,0,0,1,3.73,3.73Z"
     id="path76" />
  <polygon
     class="cls-1"
     points="301.23 270.85 301.23 318.45 293.14 320.48 293.14 276.03 301.23 270.85"
     id="polygon78" />
  <path
     d="M208.65,180.57a3.73,3.73,0,0,0,0-7.46H151.18a3.73,3.73,0,0,0,0,7.46Zm-57.47-8h57.47a3.75,3.75,0,0,0,3.06-1.59l0-.13c3.48,1.44,5.48,3.12,5.48,4.93,0,2-2.54,3.92-6.86,5.46l-.1.21a3.56,3.56,0,0,0-1.63-.38H151.18a3.73,3.73,0,0,0-1.9.52l-.06-.09c-4.23-1.53-6.74-3.71-6.74-5.72,0-1.83,2.05-3.53,5.6-5l.1.25A3.72,3.72,0,0,0,151.18,172.59Z"
     id="path80" />
  <polygon
     points="192.56 246.07 192.51 254.58 192.51 254.79 189.42 254.83 186.79 263.81 173.21 263.81 170.58 254.83 167.49 254.79 167.49 254.58 167.44 246.07 192.56 246.07"
     id="polygon82" />
  <polygon
     class="cls-1"
     points="49.33 254.68 159.19 254.68 167.49 254.79 170.58 254.83 173.21 263.81 158.75 263.81 50.5 263.81 45.68 260.09 49.33 254.68"
     id="polygon84" />
  <path
     class="cls-1"
     d="M208.65,172.59H151.18a3.72,3.72,0,0,1-3-1.51l-.1-.25c6.59-2.69,18.36-4.48,31.78-4.48s25.33,1.81,31.9,4.52l0,.13A3.75,3.75,0,0,1,208.65,172.59Z"
     id="path86" />
  <polygon
     class="cls-1"
     points="220.68 229.85 200.81 238.32 200.81 254.68 192.51 254.79 192.51 254.58 192.56 246.07 192.6 240.32 192.64 234.58 192.67 228.84 192.7 224.59 200.2 226.87 219.87 220.37 220.68 222.83 220.68 229.85"
     id="polygon88" />
  <polygon
     class="cls-1"
     points="200.81 238.32 220.68 229.85 279.41 241.83 305.7 248.69 200.81 238.32"
     id="polygon90" />
  <path
     class="cls-1"
     d="M223.83,133.64l-4.33,26.05a99,99,0,0,0-38.32-8.06H180a115.29,115.29,0,0,0-38.75,7.26l-1.86-25.07s18.09-8.65,43.74-8.7S223.83,133.64,223.83,133.64ZM180,145.34c19.62-.05,27.74-7.1,27.74-7.1s2.42-2.42.48-4.23-4.81.46-4.81.46c-4.33,2-11.8,4.3-23,4.32-11.89,0-19.45-2.54-23.57-4.57,0,0-2.29-1.95-4.39-.18s.13,4.31.13,4.31S160.41,145.37,180,145.34Z"
     id="path92" />
  <path
     d="M208.26,134c1.94,1.81-.48,4.23-.48,4.23s-8.12,7-27.74,7.1-27.46-7-27.46-7-2.23-2.54-.13-4.31,4.39.18,4.39.18c4.12,2,11.68,4.59,23.57,4.57,11.24,0,18.71-2.34,23-4.32C203.45,134.47,206.31,132.21,208.26,134Z"
     id="path94" />
  <polygon
     class="cls-1"
     points="140.17 220.09 139.32 222.83 126.36 225.62 126.36 215.82 140.17 220.09"
     id="polygon96" />
  <polygon
     class="cls-1"
     points="126.36 225.62 139.32 222.83 139.32 229.85 80.59 241.83 87.31 234.01 126.36 225.62"
     id="polygon98" />
  <polygon
     class="cls-1"
     points="64.77 276.03 64.77 320.48 56.68 318.45 56.68 270.85 64.77 276.03"
     id="polygon100" />
  <polygon
     class="cls-1"
     points="192.64 234.58 192.6 240.32 167.4 240.32 167.36 234.58 192.64 234.58"
     id="polygon102" />
  <path
     class="cls-2"
     d="M136.06,113l1.07-20h.06s3.15-2.65,5.55-3.25,46.06-8.47,83.72.74c3.42,1.29,4.42,3.35,4.42,3.35h.19l-1,19a2,2,0,0,1-2.74,1.69,245,245,0,0,0-41.07-5.34l-1,0c-19.94,0-44.09,4.89-46.62,5.54S136.06,113,136.06,113Z"
     id="path104" />
  <path
     class="cls-1"
     d="M122.36,110.33c-.51-4-1.45-6.52-2.65-6.51h-3.37a61.55,61.55,0,0,1-.58-8.41c0-35.53,31.18-62.53,68.53-62.53S251,59.88,251,95.41c0,2.22.23,5.71,0,7.87v.27h-3.68c-1.2,0-2.43,2.53-3.4,6.56l-5.29-18.51-.74-2.53a10.07,10.07,0,0,0-1-2.23h0a6.45,6.45,0,0,0-5.49-3.56s-23.67-5.15-47.09-5.1-46.52,5.3-46.52,5.3a6.4,6.4,0,0,0-4.3,1.77,11.86,11.86,0,0,0-2.86,4l-1,2.61L124,106.23l-.08.2-1.52,3.9Z"
     id="path106" />
  <polygon
     class="cls-1"
     points="159.19 238.32 54.3 248.69 80.59 241.83 139.32 229.85 159.19 238.32"
     id="polygon108" />
  <polygon
     class="cls-1"
     points="205.35 220.18 192.7 224.59 192.67 228.84 167.33 228.84 167.3 224.59 154.47 220.12 154.5 220.04 205.3 220.04 205.35 220.18"
     id="polygon110" />
  <path
     class="cls-3"
     d="M111.49,103.83c2.23,0,3.55,8.72,2.94,19.49s-2.91,19.49-5.14,19.5c-1.77,0-3-5.44-3.09-13,0-2,0-4.18.15-6.45C107,112.57,109.26,103.84,111.49,103.83Z"
     id="path112" />
  <path
     class="cls-3"
     d="M122.24,128.2c-.92,8.4-2.85,14.6-4.74,14.6l-8.21,0"
     id="path114" />
  <path
     class="cls-3"
     d="M122.29,127.76c0,.14,0,.29-.05.43"
     id="path116" />
  <path
     class="cls-3"
     d="M111.49,103.83h8.22c1.2,0,2.14,2.51,2.65,6.51"
     id="path118" />
  <path
     class="cls-3"
     d="M122.24,128.2c1.05,1.4,2.46,3.1,2.46,3.1s9.12-6,14.83-8.34c0,0,16.7-6.38,41.42-6.43a160.62,160.62,0,0,1,44.39,6.26c5.45.94,13.88,8.27,13.88,8.27s1.61-1.71,2.82-3.11l.59-.7c.28-.36.5-.64.62-.84.61-1,.88-15.62.88-15.62l-.2-.67-5.29-18.51-.74-2.53a10.07,10.07,0,0,0-1-2.23h0a6.45,6.45,0,0,0-5.49-3.56s-23.67-5.15-47.09-5.1-46.52,5.3-46.52,5.3a6.4,6.4,0,0,0-4.3,1.77,11.86,11.86,0,0,0-2.86,4l-1,2.61L124,106.23l-.08.2-1.52,3.9-.29.71s-1.38,14.59-.88,15.62a9.33,9.33,0,0,0,.6.94l.43.59Z"
     id="path120" />
  <path
     class="cls-3"
     d="M255.56,103.53c-2.23,0-4.55,8.75-5.15,19.52s.71,19.48,2.94,19.48c1.7,0,3.44-5.07,4.44-12.23.31-2.25.57-4.71.71-7.28C259.11,112.26,257.78,103.54,255.56,103.53Z"
     id="path122" />
  <path
     class="cls-3"
     d="M242,127.51c0,.15,0,.3,0,.44,0,7.79,1,13.7,2.69,14.5h0a.76.76,0,0,0,.38.09h8.23"
     id="path124" />
  <path
     class="cls-3"
     d="M255.56,103.53l-4.55,0h-3.68c-1.2,0-2.43,2.53-3.4,6.56,0,.08,0,.18-.06.28"
     id="path126" />
  <path
     class="cls-3"
     d="M137.13,92.94l-1.07,20s0,2.33,2.56,1.67,26.68-5.5,46.62-5.54l1,0a245,245,0,0,1,41.07,5.34,2,2,0,0,0,2.74-1.69l1-19,.18-3.4s.18-3.1-4.09-4a336.18,336.18,0,0,0-37.72-4.15l-4.31,0c-12-.36-38.95,3.43-43.32,4.34s-4.55,4-4.55,4Z"
     id="path128" />
  <path
     class="cls-3"
     d="M242.93,127.45l-.3-.2c-1.32-.86-6.49-4.29-10.32-6.76l0,0c-2-1.25-3.58-2.26-4.14-2.55,0,0-22.88-6.14-46.44-6.1a172.3,172.3,0,0,0-44.16,6.29c-.61.31-2.44,1.37-4.63,2.71-4.33,2.6-10.13,6.18-11.1,6.78l-.15.09"
     id="path130" />
  <path
     class="cls-3"
     d="M210.19,189l.15,0c2.6-.47,4.49-1,4.49-1,19.94-2.82,21.59-15.53,21.59-15.53l8.25-30"
     id="path132" />
  <path
     class="cls-3"
     d="M117.5,142.8s.72,9.87,5.43,28.56c3.7,14.67,19.61,17.24,26.28,17.67"
     id="path134" />
  <path
     class="cls-3"
     d="M130.9,132.28l8.47,1.53s18.09-8.65,43.74-8.7,40.72,8.53,40.72,8.53l8.63-1.57"
     id="path136" />
  <polyline
     class="cls-3"
     points="139.37 133.81 141.23 158.88 141.26 159.27"
     id="polyline138" />
  <path
     class="cls-3"
     d="M182.41,121c.57,0,1.15,0,1.73,0"
     id="path140" />
  <path
     class="cls-3"
     d="M180.49,121c.56,0,1.1,0,1.65,0a1.24,1.24,0,0,1,.27,0c38.08.27,50.05,11.07,50.05,11.07l-4.65,31.68a74.5,74.5,0,0,0-8.31-4.06,99,99,0,0,0-38.32-8.06H180a115.29,115.29,0,0,0-38.75,7.26,88,88,0,0,0-8.7,3.69l-1.63-30.29s13.18-10.84,51.24-11.27"
     id="path142" />
  <polyline
     class="cls-3"
     points="223.83 133.64 219.5 159.69 219.47 159.89"
     id="polyline144" />
  <polyline
     class="cls-3"
     points="133.68 85.42 133.1 110.33 132.86 120.74"
     id="polyline146" />
  <path
     class="cls-3"
     d="M236.73,86.94c-.22.52-4.24,33.26-4.24,33.26"
     id="path148" />
  <path
     class="cls-3"
     d="M127.2,105.69c.83,0,1.35,2.39,1.19,5.34s-1,5.33-1.79,5.34-1.35-2.39-1.19-5.34a14.47,14.47,0,0,1,.72-4C126.44,106.22,126.82,105.7,127.2,105.69Z"
     id="path150" />
  <path
     class="cls-3"
     d="M127.2,105.69H130c.75,0,1.26,2,1.21,4.64v0l0,.64c-.16,3-1,5.34-1.78,5.34H126.6"
     id="path152" />
  <path
     class="cls-3"
     d="M152.58,138.35s7.83,7,27.46,7,27.74-7.1,27.74-7.1,2.42-2.42.48-4.23-4.81.46-4.81.46c-4.33,2-11.8,4.3-23,4.32-11.89,0-19.45-2.54-23.57-4.57,0,0-2.29-1.95-4.39-.18S152.58,138.35,152.58,138.35Z"
     id="path154" />
  <path
     class="cls-3"
     d="M137.19,92.94s3.15-2.65,5.55-3.25,46.06-8.47,83.72.74c3.42,1.29,4.42,3.35,4.42,3.35"
     id="path156" />
  <path
     class="cls-3"
     d="M149.22,181.52c-4.23-1.53-6.74-3.71-6.74-5.72,0-1.83,2.05-3.53,5.6-5,6.59-2.69,18.36-4.48,31.78-4.48s25.33,1.81,31.9,4.52c3.48,1.44,5.48,3.12,5.48,4.93,0,2-2.54,3.92-6.86,5.46"
     id="path158" />
  <path
     class="cls-3"
     d="M211.71,171a3.75,3.75,0,0,1-3.06,1.59H151.18a3.72,3.72,0,0,1-3-1.51"
     id="path160" />
  <path
     class="cls-3"
     d="M208.65,180.57H151.18a3.73,3.73,0,1,1,0-7.46h57.47a3.73,3.73,0,1,1,0,7.46Z"
     id="path162" />
  <path
     class="cls-3"
     d="M210.28,181.47a3.73,3.73,0,0,1-1.63,7.08H151.18a3.73,3.73,0,1,1,0-7.46h57.47A3.56,3.56,0,0,1,210.28,181.47Z"
     id="path164" />
  <path
     class="cls-3"
     d="M210.43,189.52a3.73,3.73,0,0,1-1.78,7H151.18a3.73,3.73,0,0,1-2.64-6.37,3.85,3.85,0,0,1,.86-.64,3.7,3.7,0,0,1,1.78-.45h57.47A3.7,3.7,0,0,1,210.43,189.52Z"
     id="path166" />
  <path
     class="cls-3"
     d="M208.65,204.51H151.18a3.73,3.73,0,1,1,0-7.46h57.47a3.73,3.73,0,1,1,0,7.46Z"
     id="path168" />
  <path
     class="cls-3"
     d="M208.65,212.49H151.18a3.71,3.71,0,0,1-3.22-1.86,3.62,3.62,0,0,1-.51-1.87,3.72,3.72,0,0,1,3.73-3.73h57.47a3.73,3.73,0,0,1,3.73,3.73l-.46,1.8a3.69,3.69,0,0,1-.63.84A3.75,3.75,0,0,1,208.65,212.49Z"
     id="path170" />
  <line
     class="cls-3"
     x1="205.3"
     y1="220.04"
     x2="154.5"
     y2="220.04"
     id="line172" />
  <path
     class="cls-3"
     d="M147.74,217.76a3.72,3.72,0,0,1,0-2.78,3.68,3.68,0,0,1,.84-1.31,3.75,3.75,0,0,1,2.64-1.09h57.47a3.72,3.72,0,0,1,3.5,2.45,3.66,3.66,0,0,1-.07,2.73"
     id="path174" />
  <polygon
     class="cls-3"
     points="126.36 225.62 87.31 234.01 80.59 241.83 139.32 229.85 139.32 222.83 126.36 225.62"
     id="polygon176" />
  <polyline
     class="cls-3"
     points="80.59 241.83 54.3 248.69 49.33 254.68 159.19 254.68 159.19 238.32 139.32 229.85"
     id="polyline178" />
  <polyline
     class="cls-3"
     points="147.85 210.7 126.36 215.82 126.36 225.62 126.36 225.64"
     id="polyline180" />
  <polyline
     class="cls-3"
     points="167.49 254.58 167.44 246.07 167.4 240.32 167.36 234.58 167.33 228.84 167.3 224.59 154.47 220.12 142.93 216.09 147.7 214.98 147.71 214.98"
     id="polyline182" />
  <polyline
     class="cls-3"
     points="49.33 254.68 45.68 260.09 50.5 263.81 158.75 263.81 173.21 263.81 170.58 254.83 167.49 254.79 159.19 254.68"
     id="polyline184" />
  <polyline
     class="cls-3"
     points="45.68 260.09 40.76 317.46 55.04 327.12 304.96 327.12 319.24 317.46 314.32 260.09"
     id="polyline186" />
  <line
     class="cls-3"
     x1="167.3"
     y1="224.59"
     x2="161.56"
     y2="226.7"
     id="line188" />
  <polyline
     class="cls-3"
     points="161.56 226.7 140.17 220.09 126.36 215.82"
     id="polyline190" />
  <polygon
     class="cls-3"
     points="233.64 225.62 272.69 234.01 279.41 241.83 220.68 229.85 220.68 222.83 233.64 225.62"
     id="polygon192" />
  <polyline
     class="cls-3"
     points="279.41 241.83 305.7 248.69 310.67 254.68 200.81 254.68 200.81 238.32 220.68 229.85"
     id="polyline194" />
  <polyline
     class="cls-3"
     points="212.15 210.7 233.64 215.82 233.64 225.62 233.64 225.64"
     id="polyline196" />
  <polyline
     class="cls-3"
     points="192.51 254.58 192.56 246.07 192.6 240.32 192.64 234.58 192.67 228.84 192.7 224.59 205.35 220.18 212.1 217.82 217.07 216.09 212.29 214.98"
     id="polyline198" />
  <polyline
     class="cls-3"
     points="200.81 254.68 192.51 254.79 189.42 254.83 186.79 263.81 201.25 263.81 309.5 263.81 314.32 260.09 310.67 254.68"
     id="polyline200" />
  <polyline
     class="cls-3"
     points="233.64 215.82 219.87 220.37 200.2 226.87 192.7 224.59"
     id="polyline202" />
  <polyline
     class="cls-3"
     points="167.05 228.84 167.33 228.84 192.67 228.84 192.82 228.84"
     id="polyline204" />
  <polyline
     class="cls-3"
     points="167.05 234.58 167.36 234.58 192.64 234.58 192.82 234.58"
     id="polyline206" />
  <polyline
     class="cls-3"
     points="167.05 240.32 167.4 240.32 192.6 240.32 192.82 240.32"
     id="polyline208" />
  <polyline
     class="cls-3"
     points="167.05 246.07 167.44 246.07 192.56 246.07 192.82 246.07"
     id="polyline210" />
  <line
     class="cls-3"
     x1="173.21"
     y1="263.81"
     x2="186.79"
     y2="263.81"
     id="line212" />
  <polyline
     class="cls-3"
     points="64.77 320.48 56.68 318.45 56.68 270.85 301.23 270.85 301.23 318.45 293.14 320.48"
     id="polyline214" />
  <rect
     class="cls-3"
     x="64.77"
     y="276.03"
     width="228.37"
     height="44.45"
     id="rect216" />
  <line
     class="cls-3"
     x1="293.14"
     y1="276.03"
     x2="301.23"
     y2="270.85"
     id="line218" />
  <line
     class="cls-3"
     x1="64.77"
     y1="276.03"
     x2="56.68"
     y2="270.85"
     id="line220" />
  <line
     class="cls-3"
     x1="159.19"
     y1="238.32"
     x2="54.3"
     y2="248.69"
     id="line222" />
  <line
     class="cls-3"
     x1="200.81"
     y1="238.32"
     x2="305.7"
     y2="248.69"
     id="line224" />
  <path
     class="cls-3"
     d="M116.38,104.11c0-.1,0-.19,0-.29a61.55,61.55,0,0,1-.58-8.41c0-35.53,31.18-62.53,68.53-62.53S251,59.88,251,95.41c0,2.22.23,5.71,0,7.87"
     id="path226" />
  <path
     class="cls-1"
     d="m 264.43,132.38 c 3.92,-13.53 3.53,-27.11 -2.38,-34.71 l 9.88,3.67 c 0,0 14.91,17.42 -0.94,37.31 -4,1.23 -11,4 -12.12,4.48 2.09,-2.28 4.06,-5.68 5.56,-10.75 z"
     id="path122-2"
     style="fill:#eec746" />
  <path
     d="m 258.91,46.46 -6.26,7.66 c 0,0 -17.22,-10.9 -25.12,-13.56 v -0.120003 a 15.17,15.17 0 0 0 3.45,-1.33 24.93,24.93 0 0 0 7.09,-6 l 0.09,0.09 c 8.15,2.96 20.75,13.260003 20.75,13.260003 z"
     id="path124-0" />
  <path
     class="cls-2"
     d="m 258.84,143.13 a 12.73,12.73 0 0 1 -13.83,3.54 l -1.43,-0.3 a 36.61,36.61 0 0 1 1.85,-4.9 27.25,27.25 0 0 0 1.14,-3.71 c 2.73,0 6.13,-4 8,-13.67 1.87,-9.67 -4,-18.35 -4,-18.35 h -0.14 a 125,125 0 0 0 -1.46,-14.29 l 0.78,0.06 a 17.44,17.44 0 0 1 6.57,1.58 15.06,15.06 0 0 1 3.47,2.24 17.41,17.41 0 0 1 2.2,2.34 c 5.91,7.6 6.3,21.18 2.38,34.71 -1.44,5.07 -3.41,8.47 -5.53,10.75 z"
     id="path126-2"
     style="fill:#ff99f5" />
  <path
     d="m 246.59,137.76 c 1.77,-6.9 3.93,-19.89 4,-27.6 0,-1.49 0,-3 -0.09,-4.42 h 0.1 c 0,0 5.9,8.61 4,18.35 -1.9,9.74 -5.28,13.64 -8.01,13.67 z"
     id="path128-3" />
  <path
     class="cls-3"
     d="m 249,91.45 c 0,0 -0.63,-1.81 -0.73,-2.3 -0.1,-0.49 -2,-2.13 -2,-2.13 l 6.37,-32.9 6.26,-7.66 c 2.1,8.21 -2.47,46.4 -2.47,46.4 l -0.11,0.23 a 17.44,17.44 0 0 0 -6.57,-1.58 z"
     id="path130-7"
     style="fill:#c96fc9" />
  <path
     class="cls-4"
     d="m 238.13,29.009997 a 3,3 0 0 1 0.66,3.13 v 0 l -0.75,0.92 a 24.93,24.93 0 0 1 -7.09,6 15.17,15.17 0 0 1 -3.45,1.33 8.84,8.84 0 0 1 -5.37,-0.14 c 0,0 -19.47,-5.89 -31.32,-5.89 h -14.76 c -11.85,0 -31.32,5.89 -31.32,5.89 a 8.84,8.84 0 0 1 -5.37,0.14 15.17,15.17 0 0 1 -3.45,-1.33 24.79,24.79 0 0 1 -7.09,-6 c -0.61,-0.74 -1.13,-1.42 -1.52,-2 -0.3,-1.18 1.43,-2.1 1.43,-2.1 0,0 28.63,-9.89 47.91,-9.89 h 13.59 c 19.27,0.05 47.9,9.94 47.9,9.94 z"
     id="path132-5"
     style="fill:#d6b321" />
  <path
     class="cls-2"
     d="m 258.91,46.46 c 0,0 -12.6,-10.300003 -20.78,-13.290003 l -0.09,-0.09 0.75,-0.92 v 0 c 0.44,-0.56 0.79,-1 1.08,-1.46 h 0.56 c 10.52,3.15 21.79,14.130003 21.79,14.130003 2.12,5.85 -2.18,48.74 -2.35,50.52 a 15.06,15.06 0 0 0 -3.47,-2.24 l 0.11,-0.23 c 0,0 4.49,-38.21 2.4,-46.42 z"
     id="path134-9"
     style="fill:#ff99f5" />
  <path
     d="m 107.95,46.46 c 0,0 12.6,-10.300003 20.78,-13.290003 l 0.09,-0.09 a 24.79,24.79 0 0 0 7.09,6 15.17,15.17 0 0 0 3.45,1.33 v 0.12 C 131.52,43.19 114.24,54.09 114.24,54.09 Z"
     id="path136-2" />
  <path
     class="cls-1"
     d="m 240.43,29.879997 -0.54,0.8 c -0.29,0.41 -0.64,0.9 -1.08,1.46 a 3,3 0 0 0 -0.66,-3.13 c 0,0 -28.63,-9.89 -47.9,-9.89 h -13.61 c -19.28,0 -47.91,9.89 -47.91,9.89 0,0 -1.73,0.92 -1.43,2.1 -0.17,-0.23 -0.32,-0.44 -0.44,-0.63 -0.12,-0.19 -0.32,-0.46 -0.41,-0.6 -0.74,-1.12 -0.87,-4.05 0.19,-5.36 1.06,-1.31 22.46,-11.56 50.79,-11.56 h 12 c 28.37,0 49.76,10.26 50.82,11.56 1.06,1.3 0.9,4.24 0.18,5.36 z"
     id="path138"
     style="fill:#eec746" />
  <path
     class="cls-2"
     d="m 104.7,44.81 c 0,0 11.26,-11.000003 21.78,-14.130003 l 0.38,-0.2 c 0.12,0.19 0.27,0.4 0.44,0.63 0.39,0.55 0.91,1.23 1.52,2 l -0.09,0.09 c -8.18,3 -20.78,13.290003 -20.78,13.290003 -2.09,8.18 2.48,44.39 2.48,44.39 l 0.11,0.23 a 15.05,15.05 0 0 0 -3.47,2.21 c -0.2,-1.75 -4.51,-42.65 -2.37,-48.51 z"
     id="path140-2"
     style="fill:#ff99f5" />
  <path
     class="cls-2"
     d="m 107.72,141.13 c -2.11,-2.29 -4.05,-5.72 -5.49,-10.78 -3.8,-13.56 -3.36,-27.14 2.61,-34.68 a 16.27,16.27 0 0 1 2.22,-2.32 15.05,15.05 0 0 1 3.47,-2.21 17.53,17.53 0 0 1 6.58,-1.54 l 0.78,-0.05 a 125.21,125.21 0 0 0 -1.55,14.27 h -0.09 c 0,0 -6,8.58 -4.15,18.32 1.85,9.74 5.16,13.67 7.89,13.73 a 29.54,29.54 0 0 0 1.12,3.72 34.11,34.11 0 0 1 1.84,4.91 l -1.42,0.28 a 12.76,12.76 0 0 1 -13.81,-3.65 z"
     id="path142-8"
     style="fill:#ff99f5" />
  <path
     class="cls-3"
     d="m 114.21,54.12 6.44,31 c 0,0 -1.89,1.63 -2,2.12 -0.11,0.49 -0.76,2.3 -0.76,2.3 l -0.78,0.05 a 17.53,17.53 0 0 0 -6.58,1.54 l -0.11,-0.23 c 0,0 -4.56,-36.23 -2.47,-44.44 z"
     id="path144"
     style="fill:#c96fc9" />
  <path
     d="m 116.22,108.21 c 0,7.71 2.06,20.71 3.77,27.63 -2.73,-0.06 -6.09,-4 -7.89,-13.73 -1.8,-9.73 4.15,-18.32 4.15,-18.32 h 0.09 c -0.07,1.45 -0.12,2.93 -0.12,4.42 z"
     id="path146" />
  <path
     class="cls-1"
     d="m 94.95,99.25 9.89,-3.58 c -6,7.57 -6.44,21.15 -2.61,34.71 1.44,5.06 3.38,8.49 5.49,10.78 -1.07,-0.44 -8.11,-3.31 -12.09,-4.56 C 79.9,116.57 94.95,99.25 94.95,99.25 Z"
     id="path148-9"
     style="fill:#eec746" />
  <path
     class="cls-5"
     d="m 116.25,103.79 c 0,0 -6,8.58 -4.15,18.32 1.85,9.74 5.16,13.67 7.89,13.73 h 0.06"
     id="path150-7"
     style="fill:none;stroke:#000000;stroke-width:0.97px;stroke-linecap:round;stroke-linejoin:round" />
  <path
     class="cls-5"
     d="m 105.05,95.57 -0.21,0.07 -9.89,3.61 c 0,0 -15,17.32 0.68,37.32 4,1.25 11,4.12 12.09,4.56 h 0.14"
     id="path152-3"
     style="fill:none;stroke:#000000;stroke-width:0.97px;stroke-linecap:round;stroke-linejoin:round" />
  <path
     class="cls-5"
     d="m 107.07,93.37 c -0.19,-1.75 -4.5,-42.66 -2.36,-48.51 0,0 11.26,-11.000003 21.78,-14.130003"
     id="path154-6"
     style="fill:none;stroke:#000000;stroke-width:0.97px;stroke-linecap:round;stroke-linejoin:round" />
  <path
     class="cls-5"
     d="m 110.43,90.88 c 0,0 -4.57,-36.21 -2.48,-44.42 0,0 12.6,-10.300003 20.78,-13.290003"
     id="path156-1"
     style="fill:none;stroke:#000000;stroke-width:0.97px;stroke-linecap:round;stroke-linejoin:round" />
  <path
     class="cls-5"
     d="m 139.33,40.56 c -7.84,2.66 -25.12,13.56 -25.12,13.56 l -6.26,-7.66"
     id="path158-2"
     style="fill:none;stroke:#000000;stroke-width:0.97px;stroke-linecap:round;stroke-linejoin:round" />
  <path
     class="cls-5"
     d="m 117.89,89.52 a 125.21,125.21 0 0 0 -1.55,14.27 c -0.07,1.45 -0.12,2.93 -0.12,4.42 0,7.71 2.06,20.71 3.77,27.63 a 29.54,29.54 0 0 0 1.12,3.72 34.11,34.11 0 0 1 1.84,4.91 l -1.42,0.28 a 12.76,12.76 0 0 1 -13.81,-3.62 c -2.11,-2.29 -4.05,-5.72 -5.49,-10.78 -3.8,-13.56 -3.36,-27.14 2.61,-34.68 a 16.27,16.27 0 0 1 2.22,-2.32 15.05,15.05 0 0 1 3.47,-2.21 17.53,17.53 0 0 1 6.58,-1.54 l 0.78,-0.05 c 0,0 0.66,-1.81 0.76,-2.3 0.1,-0.49 2,-2.12 2,-2.12 l -6.44,-31"
     id="path160-9"
     style="fill:none;stroke:#000000;stroke-width:0.97px;stroke-linecap:round;stroke-linejoin:round" />
  <path
     class="cls-5"
     d="m 127.32,31.169997 c 0,0 0,0 0,-0.06 -0.3,-1.18 1.43,-2.1 1.43,-2.1 0,0 28.63,-9.89 47.91,-9.89 h 13.57 c 19.27,0 47.9,9.89 47.9,9.89 a 3,3 0 0 1 0.66,3.13"
     id="path162-3"
     style="fill:none;stroke:#000000;stroke-width:0.97px;stroke-linecap:round;stroke-linejoin:round" />
  <path
     class="cls-5"
     d="m 250.56,105.74 c 0,0 5.9,8.61 4,18.35 -1.9,9.74 -5.27,13.64 -8,13.67 v 0"
     id="path164-1"
     style="fill:none;stroke:#000000;stroke-width:0.97px;stroke-linecap:round;stroke-linejoin:round" />
  <path
     class="cls-5"
     d="m 261.81,97.59 0.21,0.08 9.88,3.67 c 0,0 14.91,17.42 -0.94,37.31 -4,1.23 -11,4 -12.12,4.48 l -0.14,0.06"
     id="path166-9"
     style="fill:none;stroke:#000000;stroke-width:0.97px;stroke-linecap:round;stroke-linejoin:round" />
  <path
     class="cls-5"
     d="m 259.81,95.39 a 0.28,0.28 0 0 1 0,-0.06 c 0.17,-1.78 4.47,-44.67 2.35,-50.52 0,0 -11.27,-11.000003 -21.79,-14.130003"
     id="path168-4"
     style="fill:none;stroke:#000000;stroke-width:0.97px;stroke-linecap:round;stroke-linejoin:round" />
  <path
     class="cls-5"
     d="m 256.43,92.86 c 0,0 4.54,-38.17 2.45,-46.4 0,0 -12.6,-10.300003 -20.78,-13.290003"
     id="path170-7"
     style="fill:none;stroke:#000000;stroke-width:0.97px;stroke-linecap:round;stroke-linejoin:round" />
  <path
     class="cls-5"
     d="m 227.53,40.56 c 7.85,2.66 25.12,13.56 25.12,13.56 l 6.26,-7.66"
     id="path172"
     style="fill:none;stroke:#000000;stroke-width:0.97px;stroke-linecap:round;stroke-linejoin:round" />
  <path
     class="cls-5"
     d="m 249,91.45 a 125,125 0 0 1 1.43,14.29 c 0.07,1.45 0.1,2.93 0.09,4.42 0,7.71 -2.19,20.7 -4,27.6 a 27.25,27.25 0 0 1 -1.09,3.71 36.61,36.61 0 0 0 -1.87,4.89 l 1.43,0.3 a 12.73,12.73 0 0 0 13.83,-3.53 c 2.12,-2.28 4.09,-5.68 5.56,-10.75 3.92,-13.53 3.53,-27.11 -2.38,-34.71 a 17.41,17.41 0 0 0 -2.2,-2.34 15.06,15.06 0 0 0 -3.47,-2.24 17.44,17.44 0 0 0 -6.57,-1.58 l -0.78,-0.06 c 0,0 -0.63,-1.81 -0.73,-2.3 -0.1,-0.49 -2,-2.13 -2,-2.13 l 6.37,-32.9"
     id="path174-8"
     style="fill:none;stroke:#000000;stroke-width:0.97px;stroke-linecap:round;stroke-linejoin:round" />
  <path
     class="cls-5"
     d="m 139.36,40.439997 a 8.84,8.84 0 0 0 5.37,-0.14 c 0,0 19.47,-5.89 31.32,-5.89 h 14.76 c 11.85,0 31.32,5.89 31.32,5.89 a 8.84,8.84 0 0 0 5.37,0.14 15.17,15.17 0 0 0 3.45,-1.33 24.93,24.93 0 0 0 7.09,-6 l 0.75,-0.92 v 0 c 0.44,-0.56 0.79,-1 1.08,-1.46 l 0.54,-0.8 c 0.74,-1.12 0.87,-4.05 -0.2,-5.36 -1.07,-1.31 -22.45,-11.61 -50.78,-11.61 h -12 c -28.37,0 -49.76,10.26 -50.83,11.56 -1.07,1.3 -0.93,4.24 -0.19,5.36 0.09,0.14 0.23,0.35 0.41,0.6 0.18,0.25 0.27,0.4 0.44,0.63 0.39,0.55 0.91,1.23 1.52,2 a 24.79,24.79 0 0 0 7.09,6 15.17,15.17 0 0 0 3.49,1.33 z"
     id="path176"
     style="fill:none;stroke:#000000;stroke-width:0.97px;stroke-linecap:round;stroke-linejoin:round" />
  <line
     class="cls-5"
     x1="87.639999"
     y1="83.639992"
     x2="91.669998"
     y2="89.909996"
     id="line178"
     style="fill:none;stroke:#000000;stroke-width:0.97px;stroke-linecap:round;stroke-linejoin:round" />
  <line
     class="cls-5"
     x1="83.649994"
     y1="125.66999"
     x2="75.899994"
     y2="130.62999"
     id="line180"
     style="fill:none;stroke:#000000;stroke-width:0.97px;stroke-linecap:round;stroke-linejoin:round" />
  <line
     class="cls-5"
     x1="75.25"
     y1="107.13"
     x2="83.929993"
     y2="109.02"
     id="line182"
     style="fill:none;stroke:#000000;stroke-width:0.97px;stroke-linecap:round;stroke-linejoin:round" />
  <line
     class="cls-5"
     x1="277.57004"
     y1="86.150002"
     x2="273.49002"
     y2="92.379997"
     id="line184"
     style="fill:none;stroke:#000000;stroke-width:0.97px;stroke-linecap:round;stroke-linejoin:round" />
  <line
     class="cls-5"
     x1="281.28003"
     y1="128.19998"
     x2="288.98001"
     y2="133.20998"
     id="line186"
     style="fill:none;stroke:#000000;stroke-width:0.97px;stroke-linecap:round;stroke-linejoin:round" />
  <line
     class="cls-5"
     x1="289.80002"
     y1="109.71"
     x2="281.10004"
     y2="111.54"
     id="line188-4"
     style="fill:none;stroke:#000000;stroke-width:0.97px;stroke-linecap:round;stroke-linejoin:round" />
  <path
     class="cls-1"
     d="m 141.41,63.63 c -21.8,3.61 -27.13,20.669997 -27.13,20.669997 V 101.08 c -8.06,-1.770003 -27,-5.380003 -31.57,-12.000003 a 22,22 0 0 1 -3,-16.66 A 34.43,34.43 0 0 1 87.55,57.11 c 7.32,-8.65 18.84,-14.76 29.89,-12.29 1.52,0.5 3,1 4.48,1.45 v 0 c 7.81,3.36 14,10.21 20.89,15.53 0.57,0.44 1.14,0.87 1.73,1.29 v 0 c 0,0 -1.5,0.21 -3.13,0.54 z"
     id="path6-5"
     style="fill:#492d1a" />
  <path
     class="cls-1"
     d="m 221.53,63.41 -0.08,-0.11 c 0.7,-0.49 1.4,-1 2.08,-1.53 6.87,-5.32 13.07,-12.17 20.88,-15.53 h 0.05 c 1.46,-0.46 2.95,-1 4.47,-1.45 11.06,-2.47 22.58,3.64 29.89,12.29 a 34.44,34.44 0 0 1 7.85,15.309997 c 1.12,5.69 0.27,11.89 -3,16.66 -4.46,6.47 -26.51,12.780003 -34.36,14.550003 l -1.35,-20.300003 c 0,0 -3.82,-16.569997 -24.62,-19.749997 -0.36,0.22 -1.81,-0.14 -1.81,-0.14 z"
     id="path8-0"
     style="fill:#492d1a" />
  <path
     class="cls-2"
     d="m 244.41,46.24 c -7.81,3.36 -14,10.21 -20.88,15.53 -0.68,0.53 -1.38,1 -2.08,1.53 a 68,68 0 0 1 -33,12.119997 l -9,0.12 A 67.92,67.92 0 0 1 144.59,63.06 C 144,62.64 143.43,62.21 142.86,61.77 135.99,56.45 129.78,49.6 121.97,46.24 q 5.58,1.77 10.65,3.18 v 0 c 1.66,0.46 3.27,0.89 4.85,1.3 27.41,7.2 42.31,6.86 42.31,6.86 h 6.85 c 0,0 14.56,0.33 41.38,-6.61 1.52,-0.39 3.07,-0.81 4.67,-1.25 q 5.54,-1.52 11.73,-3.48 z"
     id="path10-3"
     style="fill:#6b452b" />
  <path
     class="cls-1"
     d="m 232.54,49.3 0.11,0.4 c -1.6,0.44 -3.15,0.86 -4.67,1.25 l -0.14,-0.56 A 259.73,259.73 0 0 0 181.28,46.2 c -25.88,0 -43.73,4.22 -43.73,4.22 l -0.08,0.31 c -1.58,-0.41 -3.19,-0.84 -4.85,-1.3 v 0 -0.09 c 0,0 2.23,-3.8 5,-8.74 1.36,-0.31 18.8,-4.2 43.64,-4.2 a 261.24,261.24 0 0 1 46.27,4.16 c 2.75,4.95 5.01,8.74 5.01,8.74 z"
     id="path12"
     style="fill:#492d1a" />
  <path
     class="cls-2"
     d="m 227.84,50.42 0.14,0.56 c -26.82,6.94 -41.38,6.61 -41.38,6.61 h -6.85 c 0,0 -14.9,0.34 -42.31,-6.86 l 0.08,-0.31 c 0,0 17.85,-4.22 43.76,-4.22 a 259.73,259.73 0 0 1 46.56,4.22 z"
     id="path14"
     style="fill:#6b452b" />
  <path
     class="cls-2"
     d="m 217.55,20.45 c 1.27,4.12 6.13,13.21 10,20.1 a 261.24,261.24 0 0 0 -46.27,-4.16 c -24.84,0 -42.28,3.89 -43.64,4.2 3.85,-6.9 8.72,-16 10,-20.14 2.14,-7.08 10.04,-18.25 26.39,-12.53 0,0 4.36,3.81 7.63,3.81 3.27,0 9.47,-3.81 9.47,-3.81 16.34,-5.72 24.24,5.45 26.42,12.53 z"
     id="path16"
     style="fill:#6b452b" />
  <path
     class="cls-3"
     d="m 121.9,46.22 a 25.77,25.77 0 0 0 -4.48,-1.45 c -11,-2.47 -22.57,3.64 -29.89,12.29 a 34.43,34.43 0 0 0 -7.84,15.309997 22,22 0 0 0 3,16.66 c 4.59,6.64 23.53,10.27 31.59,12.020003 V 84.299997 c 0,0 5.38,-16.999997 27.18,-20.639997 1.63,-0.34 3.13,-0.54 3.13,-0.54"
     id="path18-6"
     style="fill:none;stroke:#000000;stroke-linecap:round;stroke-linejoin:round" />
  <path
     class="cls-3"
     d="m 244.41,46.24 c -7.81,3.36 -14,10.21 -20.88,15.53 -0.68,0.53 -1.38,1 -2.08,1.53 a 68,68 0 0 1 -33,12.119997 l -9,0.12 A 67.92,67.92 0 0 1 144.59,63.06 C 144,62.64 143.43,62.21 142.86,61.77 135.99,56.45 129.78,49.6 121.97,46.24"
     id="path20"
     style="fill:none;stroke:#000000;stroke-linecap:round;stroke-linejoin:round" />
  <path
     class="cls-3"
     d="m 221.53,63.41 c 0,0 1.45,0.36 1.81,0.09 20.8,3.18 24.62,19.799997 24.62,19.799997 L 249.28,103.58 c 7.85,-1.77 29.9,-8.080003 34.36,-14.550003 3.3,-4.77 4.15,-11 3,-16.66 A 34.44,34.44 0 0 0 278.79,57.06 C 271.48,48.41 259.96,42.3 248.9,44.77 a 25.94,25.94 0 0 0 -4.47,1.45"
     id="path22-1"
     style="fill:none;stroke:#000000;stroke-linecap:round;stroke-linejoin:round" />
  <path
     class="cls-3"
     d="m 248.93,44.77 c -1.52,0.5 -3,1 -4.47,1.45 h -0.05 q -6.19,2 -11.76,3.49 c -1.6,0.44 -3.15,0.86 -4.67,1.25 -26.82,6.94 -41.38,6.61 -41.38,6.61 h -6.85 c 0,0 -14.9,0.34 -42.31,-6.86 -1.58,-0.41 -3.19,-0.84 -4.85,-1.3 v 0 Q 127.52,48 121.94,46.23 v 0 c -1.47,-0.46 -3,-1 -4.48,-1.45"
     id="path24-0"
     style="fill:none;stroke:#000000;stroke-linecap:round;stroke-linejoin:round" />
  <path
     class="cls-3"
     d="m 232.54,49.3 c 0,0 -2.24,-3.82 -5,-8.78 -3.84,-6.89 -8.7,-16 -10,-20.1 -2.18,-7.08 -10.08,-18.25 -26.42,-12.53 0,0 -6.2,3.81 -9.47,3.81 -3.27,0 -7.63,-3.81 -7.63,-3.81 -16.34,-5.69 -24.24,5.48 -26.42,12.56 -1.27,4.13 -6.14,13.24 -10,20.14 -2.76,4.94 -5,8.74 -5,8.74"
     id="path26-6"
     style="fill:none;stroke:#000000;stroke-linecap:round;stroke-linejoin:round" />
  <path
     class="cls-3"
     d="m 170.76,18.54 c 0,0 -10.62,8.76 -18.48,10.9"
     id="path28-3"
     style="fill:none;stroke:#000000;stroke-linecap:round;stroke-linejoin:round" />
  <path
     class="cls-3"
     d="m 191.19,17.45 c 0,0 7.36,8.18 18.53,10.09"
     id="path30-2"
     style="fill:none;stroke:#000000;stroke-linecap:round;stroke-linejoin:round" />
  <path
     class="cls-3"
     d="m 137.52,40.61 h 0.09 c 1.36,-0.31 18.8,-4.2 43.64,-4.2 a 261.24,261.24 0 0 1 46.27,4.16 l 0.32,0.06"
     id="path32-0"
     style="fill:none;stroke:#000000;stroke-linecap:round;stroke-linejoin:round" />
  <path
     class="cls-3"
     d="m 137.52,50.42 c 0,0 17.85,-4.22 43.76,-4.22 a 259.73,259.73 0 0 1 46.59,4.22"
     id="path34-6"
     style="fill:none;stroke:#000000;stroke-linecap:round;stroke-linejoin:round" />
  <path
     d="m 285.15,97.399997 c 0,0 0.13,1.56 -2.09,2.27 -2.22,0.710003 -5.91,3.400003 -7,10.070003 -1.09,6.67 -4.31,24.69 -8,32.22 -3.69,7.53 -12.19,11.63 -18.23,12.2 -6.04,0.57 -27.47,1.85 -36.22,-5.25 -8.75,-7.1 -19.21,-26.82 -21.8,-38.46 -1.72,-6.1 -2.09,-9.22 -6.16,-9.51 h -2.27 c -4.06,0.29 -4.43,3.41 -6.16,9.51 -2.58,11.64 -13.06,31.36 -21.8,38.46 -8.74,7.1 -30.18,5.82 -36.22,5.25 -6.04,-0.57 -14.53,-4.68 -18.23,-12.2 -3.7,-7.52 -6.9,-25.55 -8,-32.22 -1.1,-6.67 -4.8,-9.37 -7,-10.070003 -2.2,-0.7 -2.18,-2.27 -2.18,-2.27 v -8.94 c 0,0 0.35,-5.6 1.44,-6.6 v 0 a 0.81,0.81 0 0 0 -0.25,0.72 v 10.83 c 0,0 -0.12,1.55 2.07,2.25 2.19,0.7 5.84,3.36 6.93,10.000003 1.09,6.64 4.26,24.39 7.91,31.82 3.65,7.43 12,11.5 18,12.06 6,0.56 27.14,1.82 35.78,-5.19 8.64,-7.01 19,-26.49 21.54,-38 1.71,-6 2.07,-9.110003 6.09,-9.390003 h 2.24 c 4,0.28 4.38,3.360003 6.08,9.390003 2.56,11.5 12.9,31 21.54,38 8.64,7 29.81,5.75 35.78,5.19 5.97,-0.56 14.36,-4.63 18,-12.06 3.64,-7.43 6.81,-25.23 7.91,-31.82 1.1,-6.590003 4.74,-9.250003 6.93,-10.000003 2.19,-0.75 2.07,-2.25 2.07,-2.25 v -10.79 a 0.28,0.28 0 0 0 0,-0.09 21.31,21.31 0 0 1 1.21,4.58 z"
     id="path83" />
  <path
     class="cls-1"
     d="m 283.94,82.529997 a 0.28,0.28 0 0 1 0,0.09 v 10.79 c 0,0 0.12,1.55 -2.07,2.25 -2.19,0.7 -5.84,3.36 -6.93,10.000003 -1.09,6.64 -4.26,24.39 -7.91,31.82 -3.65,7.43 -12.05,11.5 -18,12.06 -5.95,0.56 -27.14,1.82 -35.78,-5.19 -8.64,-7.01 -19,-26.49 -21.54,-38 -1.7,-6 -2.07,-9.110003 -6.08,-9.390003 h -2.24 c -4,0.28 -4.38,3.360003 -6.09,9.390003 -2.55,11.5 -12.9,31 -21.54,38 -8.64,7 -29.81,5.75 -35.78,5.19 -5.97,-0.56 -14.35,-4.63 -18,-12.06 -3.65,-7.43 -6.81,-25.23 -7.91,-31.82 -1.1,-6.590003 -4.74,-9.250003 -6.93,-10.000003 -2.19,-0.75 -2.07,-2.25 -2.07,-2.25 v -10.79 a 0.81,0.81 0 0 1 0.25,-0.72 c 0.25,-0.22 0.66,-0.29 1,-0.54 3,-1.68 31.45,-7.850001 45.45,-7.850001 14,0 38.21,4.340001 42.83,6.590001 a 43.39,43.39 0 0 1 10.19,-1 c 6.49,0 9.58,1 9.58,1 4.62,-2.25 28.84,-6.590001 42.83,-6.590001 13.99,0 42.47,6.170001 45.46,7.850001 0.58,0.44 1.28,0.35 1.28,1.17 z m -3.9,4.94 v -0.37 a 2.52,2.52 0 0 0 -2.52,-2.52 h -4.89 a 2.52,2.52 0 0 0 -2.51,2.52 v 0.37 a 2.52,2.52 0 0 0 2.51,2.51 h 4.89 a 2.52,2.52 0 0 0 2.52,-2.51 z M 268.24,106.35 c 2.65,-20.770003 -17.73,-24.690003 -17.73,-24.690003 -12,-4.450001 -31.13,-0.44 -39.61,2.35 -8.48,2.79 -11.59,12.39 -9.7,25.920003 1.89,13.53 12,24.69 17.8,28.8 11.21,7.33 31.74,4.8 37.87,0.61 6.13,-4.19 8.72,-12.22 11.37,-32.99 z m -100.45,3.58 c 1.9,-13.530003 -1.21,-23.120003 -9.69,-25.920003 -8.48,-2.8 -27.65,-6.800001 -39.62,-2.35 0,0 -20.38,3.92 -17.72,24.690003 2.66,20.77 5.22,28.8 11.36,33 6.14,4.2 26.66,6.72 37.87,-0.61 5.8,-4.12 15.89,-15.28 17.8,-28.81 z M 98.85,87.469997 v -0.37 a 2.51,2.51 0 0 0 -2.51,-2.52 h -4.89 a 2.52,2.52 0 0 0 -2.52,2.52 v 0.37 a 2.52,2.52 0 0 0 2.52,2.51 h 4.89 a 2.51,2.51 0 0 0 2.51,-2.51 z"
     id="path85"
     style="fill:#231f20" />
  <rect
     class="cls-2"
     x="270.12"
     y="84.579994"
     width="9.9200001"
     height="5.4000001"
     rx="2.51"
     id="rect87"
     style="fill:#c4c6c8" />
  <path
     d="m 250.51,81.659997 c 0,0 20.38,3.92 17.73,24.690003 -2.65,20.77 -5.23,28.8 -11.37,33 -6.14,4.2 -26.66,6.72 -37.87,-0.61 -5.83,-4.11 -15.91,-15.27 -17.8,-28.8 -1.89,-13.530003 1.21,-23.120003 9.7,-25.920003 8.49,-2.8 27.64,-6.810001 39.61,-2.36 z"
     id="path89" />
  <path
     d="m 158.08,84.009997 c 8.48,2.8 11.59,12.39 9.69,25.920003 -1.9,13.53 -12,24.69 -17.8,28.8 -11.21,7.33 -31.74,4.8 -37.87,0.61 -6.13,-4.19 -8.71,-12.22 -11.36,-33 -2.65,-20.780003 17.72,-24.690003 17.72,-24.690003 11.97,-4.440001 31.13,-0.43 39.62,2.36 z"
     id="path91" />
  <rect
     class="cls-2"
     x="88.929993"
     y="84.579994"
     width="9.9200001"
     height="5.4000001"
     rx="2.51"
     id="rect93"
     style="fill:#c4c6c8" />
  <path
     class="cls-3"
     d="m 118.46,81.659997 c 0,0 -20.38,3.92 -17.67,24.690003 2.71,20.77 5.22,28.8 11.36,33 6.14,4.2 26.66,6.72 37.87,-0.61 5.83,-4.11 15.91,-15.27 17.8,-28.8 1.89,-13.530003 -1.26,-23.140003 -9.74,-25.930003 -8.48,-2.79 -27.65,-6.800001 -39.62,-2.35 z"
     id="path95"
     style="fill:none;stroke:#000000;stroke-width:0.22px;stroke-linecap:round;stroke-linejoin:round" />
  <rect
     class="cls-3"
     x="88.929993"
     y="84.579994"
     width="9.9200001"
     height="5.4000001"
     rx="2.51"
     id="rect97"
     style="fill:none;stroke:#000000;stroke-width:0.22px;stroke-linecap:round;stroke-linejoin:round" />
  <path
     class="cls-4"
     d="m 283.94,82.529997 c 0,-0.82 -0.7,-0.77 -1.28,-1.17 -3,-1.68 -31.46,-7.850001 -45.46,-7.850001 -14,0 -38.21,4.340001 -42.83,6.590001 0,0 -3.09,-1 -9.58,-1 a 43.39,43.39 0 0 0 -10.19,1 c -4.62,-2.25 -28.81,-6.590001 -42.81,-6.590001 -14,0 -42.47,6.170001 -45.45,7.850001 -0.37,0.25 -0.78,0.32 -1,0.54 a 0.81,0.81 0 0 0 -0.25,0.72 v 10.79 c 0,0 -0.12,1.55 2.07,2.25 2.19,0.7 5.84,3.36 6.93,10.000003 1.09,6.64 4.26,24.39 7.91,31.82 3.65,7.43 12,11.5 18,12.06 6,0.56 27.14,1.82 35.78,-5.19 8.64,-7.01 19,-26.49 21.54,-38 1.71,-6 2.07,-9.110003 6.09,-9.390003 h 2.24 c 4,0.28 4.38,3.360003 6.08,9.390003 2.56,11.5 12.9,31 21.54,38 8.64,7 29.81,5.75 35.78,5.19 5.97,-0.56 14.36,-4.63 18,-12.06 3.64,-7.43 6.81,-25.23 7.91,-31.82 1.1,-6.590003 4.74,-9.250003 6.93,-10.000003 2.19,-0.75 2.07,-2.25 2.07,-2.25 v -10.79 a 0.28,0.28 0 0 0 -0.02,-0.09 z"
     id="path99"
     style="fill:none;stroke:#000000;stroke-width:0.24px;stroke-linecap:round;stroke-linejoin:round" />
  <path
     class="cls-5"
     d="m 85.37,81.799997 -0.11,0.08 c -1.09,1 -1.44,6.6 -1.44,6.6 v 8.92 c 0,0 -0.13,1.56 2.09,2.27 2.22,0.710003 5.91,3.400003 7,10.070003 1.09,6.67 4.31,24.69 8,32.22 3.69,7.53 12.2,11.63 18.23,12.2 6.03,0.57 27.47,1.85 36.22,-5.25 8.75,-7.1 19.22,-26.82 21.8,-38.46 1.73,-6.1 2.1,-9.22 6.16,-9.51 h 2.27 c 4.07,0.29 4.44,3.41 6.16,9.51 2.59,11.64 13.06,31.36 21.8,38.46 8.74,7.1 30.24,5.82 36.24,5.25 6,-0.57 14.54,-4.68 18.23,-12.2 3.69,-7.52 6.9,-25.55 8,-32.22 1.1,-6.67 4.8,-9.37 7,-10.070003 2.2,-0.7 2.09,-2.27 2.09,-2.27 v -10.29 a 21.31,21.31 0 0 0 -1.21,-4.58 l -0.11,-0.33"
     id="path101"
     style="fill:none;stroke:#000000;stroke-width:0.24px;stroke-linecap:round;stroke-linejoin:round" />
  <path
     class="cls-3"
     d="m 250.51,81.659997 c 0,0 20.38,3.92 17.73,24.690003 -2.65,20.77 -5.23,28.8 -11.37,33 -6.14,4.2 -26.66,6.72 -37.87,-0.61 -5.83,-4.11 -15.91,-15.27 -17.8,-28.8 -1.89,-13.530003 1.21,-23.120003 9.7,-25.920003 8.49,-2.8 27.64,-6.810001 39.61,-2.36 z"
     id="path103"
     style="fill:none;stroke:#000000;stroke-width:0.22px;stroke-linecap:round;stroke-linejoin:round" />
  <rect
     class="cls-3"
     x="270.12"
     y="84.579994"
     width="9.9200001"
     height="5.4000001"
     rx="2.51"
     id="rect105"
     style="fill:none;stroke:#000000;stroke-width:0.22px;stroke-linecap:round;stroke-linejoin:round" />
  <path
     class="cls-6"
     d="m 147.85,83.299997 c 0,0 16.12,1.06 17.88,14.5 a 41,41 0 0 1 0,13.450003 31.35,31.35 0 0 0 -4.86,-20.820003 c -3.93,-5.98 -13.02,-7.13 -13.02,-7.13 z"
     id="path107"
     style="fill:#ffffff" />
  <path
     class="cls-6"
     d="m 247.96,83.299997 c 0,0 16.12,1.06 17.88,14.5 a 41,41 0 0 1 0,13.450003 31.35,31.35 0 0 0 -4.86,-20.820003 c -3.93,-5.98 -13.02,-7.13 -13.02,-7.13 z"
     id="path109"
     style="fill:#ffffff" />
  <path
     class="cls-7"
     d="m 103.3,111.31 c 0,0 2.18,19.75 7.22,24.38 5.04,4.63 18.39,7.5 25.2,6.13 6.81,-1.37 14.31,-2.45 19.35,-9.39 5.04,-6.94 9.4,-17.3 9.4,-17.3 0,0 -40.6,22.2 -61.17,-3.82 z"
     id="path111"
     style="fill:url(#linear-gradient);stroke:#000000;stroke-width:0.24px;stroke-linecap:round;stroke-linejoin:round" />
  <path
     class="cls-8"
     d="m 203.02,112.26 c 0,0 7.22,16.76 12.26,21.39 5.04,4.63 14,8.41 21,8.17 8.18,-0.27 17.44,0 22.48,-6.94 5.04,-6.94 6.27,-19.75 6.27,-19.75 0,0 -40.24,20.16 -62.01,-2.87 z"
     id="path113"
     style="fill:url(#linear-gradient-2);stroke:#000000;stroke-width:0.24px;stroke-linecap:round;stroke-linejoin:round" />
</svg>
