<svg width="135" height="135" viewBox="0 0 135 135" fill="none" xmlns="http://www.w3.org/2000/svg">
<g clip-path="url(#clip0)">
<path d="M133.445 61.0093C133.627 63.015 133.752 65.0384 133.752 67.0928C133.752 65.0384 133.627 63.0165 133.445 61.0093Z" fill="#373737"/>
<path d="M35.155 60.6592C35.155 60.6592 16.7301 128.546 90.579 129.136C113.749 120.511 130.823 99.3641 133.41 73.869C133.589 72.1055 133.642 70.3066 133.682 68.5047C133.69 68.0306 133.753 67.5698 133.753 67.0928C133.753 65.0398 133.628 63.0149 133.446 61.0092C113.935 137.815 27.6225 107.731 35.155 60.6592Z" fill="#373737"/>
<path d="M73.3394 35.4609C73.3394 35.4609 4.58153 16.2591 5.63903 91.232C9.16361 100.292 14.6334 108.468 21.6624 115.184C21.9578 115.463 22.2636 115.727 22.5619 116.002C24.5501 117.835 26.6483 119.545 28.8448 121.122C29.186 121.366 29.5065 121.635 29.8492 121.873C32.1726 123.462 34.5953 124.9 37.1025 126.18C37.8306 126.555 38.5794 126.897 39.3179 127.247C41.4754 128.263 43.6867 129.161 45.942 129.935C46.4959 130.124 47.0246 130.361 47.5859 130.537C50.2896 131.363 53.044 132.014 55.8317 132.486C56.675 132.634 57.5272 132.758 58.3809 132.876C61.2729 133.294 64.1893 133.52 67.1111 133.554C67.2234 133.554 67.3312 133.572 67.4434 133.572C69.647 133.572 71.8226 133.454 73.9686 133.242C-3.17836 114.844 26.145 28.5784 73.3394 35.4609Z" fill="#373737"/>
<path d="M100.14 71.0155C100.14 71.0155 116.407 2.43489 43.1826 5.49808C18.6283 15.1972 1.24609 39.0883 1.24609 67.0869C1.26893 70.1019 1.49641 73.112 1.92697 76.0962C17.3374 -1.4938 105.132 23.635 100.14 71.0155Z" fill="#373737"/>
<path d="M64.9812 100.528C64.9812 100.528 133.859 109.52 129.547 44.0333C120.173 18.8262 95.969 0.833984 67.4994 0.833984C63.468 0.849563 59.4465 1.2317 55.4844 1.97567C132.233 11.3971 112.285 101.199 64.9812 100.528Z" fill="#373737"/>
<path d="M86.6206 67.094C86.6206 70.7646 85.5321 74.3529 83.4927 77.4048C81.4532 80.4568 78.5545 82.8354 75.1632 84.2398C71.7718 85.6442 68.0402 86.0114 64.4401 85.2948C60.8401 84.5783 57.5334 82.8102 54.9383 80.2143C52.3431 77.6183 50.5761 74.3111 49.8608 70.7108C49.1454 67.1106 49.5137 63.379 50.9192 59.9881C52.3247 56.5972 54.7043 53.6993 57.7569 51.6608C60.8095 49.6224 64.398 48.535 68.0687 48.5361C72.9896 48.5373 77.7086 50.4931 81.1877 53.9733C84.6668 57.4534 86.621 62.173 86.6206 67.094V67.094Z" fill="#373737"/>
</g>
<defs>
<clipPath id="clip0">
<rect width="135" height="135" fill="white"/>
</clipPath>
</defs>
</svg>
